<svg width="49" height="48" viewBox="0 0 49 48" fill="none" xmlns="http://www.w3.org/2000/svg">
<path d="M24.1453 14V40M24.1453 14H17.0739C16.032 14 15.0327 13.5786 14.296 12.8284C13.5592 12.0783 13.1453 11.0609 13.1453 10C13.1453 8.93914 13.5592 7.92172 14.296 7.17158C15.0327 6.42142 16.032 6 17.0739 6C22.5739 6 24.1453 14 24.1453 14ZM24.1453 14H31.2167C32.2587 14 33.2579 13.5786 33.9947 12.8284C34.7313 12.0783 35.1453 11.0609 35.1453 10C35.1453 8.93914 34.7313 7.92172 33.9947 7.17158C33.2579 6.42142 32.2587 6 31.2167 6C25.7167 6 24.1453 14 24.1453 14ZM10.1453 24H38.1453V35.6C38.1453 37.8402 38.1453 38.9604 37.7093 39.816C37.3259 40.5686 36.7139 41.1806 35.9613 41.564C35.1057 42 33.9855 42 31.7453 42H16.5453C14.3051 42 13.185 42 12.3294 41.564C11.5767 41.1806 10.9648 40.5686 10.5813 39.816C10.1453 38.9604 10.1453 37.8402 10.1453 35.6V24ZM9.34532 24H38.9453C40.0655 24 40.6255 24 41.0533 23.782C41.4297 23.5902 41.7355 23.2844 41.9273 22.908C42.1453 22.4802 42.1453 21.9202 42.1453 20.8V17.2C42.1453 16.0799 42.1453 15.5198 41.9273 15.092C41.7355 14.7157 41.4297 14.4097 41.0533 14.218C40.6255 14 40.0655 14 38.9453 14H9.34532C8.22522 14 7.66516 14 7.23734 14.218C6.86102 14.4097 6.55506 14.7157 6.3633 15.092C6.14532 15.5198 6.14532 16.0799 6.14532 17.2V20.8C6.14532 21.9202 6.14532 22.4802 6.3633 22.908C6.55506 23.2844 6.86102 23.5902 7.23734 23.782C7.66516 24 8.22522 24 9.34532 24Z" stroke="black" stroke-width="1.5" stroke-linecap="round" stroke-linejoin="round"/>
</svg>
