<svg width="49" height="48" viewBox="0 0 49 48" fill="none" xmlns="http://www.w3.org/2000/svg">
<path d="M17.5828 1.96875C15.5766 2.34375 13.7203 3.4875 12.5203 5.0625C11.9578 5.79375 11.3203 7.18125 11.0953 8.1C10.8703 9.09375 10.8516 10.5375 11.0578 11.625C11.9578 16.35 16.0453 21.7688 21.3891 25.3313C22.7391 26.2313 23.9203 26.9062 24.1828 26.9062C24.5953 26.9062 27.1641 25.2937 28.7203 24.075C32.9391 20.7375 36.0891 16.3875 37.1203 12.4312C37.7016 10.2 37.5703 8.34375 36.6891 6.4875C35.5078 3.975 33.2203 2.2875 30.4266 1.875C27.8203 1.5 24.9891 2.56875 23.2078 4.63125C22.5328 5.4 21.9328 6.43125 21.9328 6.7875C21.9328 7.18125 22.2703 7.5 22.6641 7.5C23.0391 7.5 23.2078 7.35 23.5828 6.61875C24.0141 5.79375 25.3266 4.51875 26.2078 4.05C27.3141 3.46875 28.0828 3.28125 29.4141 3.3C30.4453 3.3 30.5953 3.31875 31.3641 3.58125C32.2828 3.9 32.7328 4.125 33.4641 4.70625C34.5141 5.49375 35.4891 7.03125 35.8266 8.38125C35.9953 9.1125 36.0141 10.5187 35.8266 11.4C34.9641 15.8812 30.6516 21.3 25.2328 24.675L24.1828 25.3313L23.2641 24.7688C20.6953 23.1938 17.9953 20.8312 16.1953 18.5812C14.3578 16.2937 13.0453 13.7437 12.5766 11.625C12.3328 10.6875 12.3328 9.2625 12.5391 8.45625C13.1766 5.86875 15.2016 3.95625 17.8266 3.45C18.9516 3.225 20.2641 3.3375 21.3141 3.75C21.9141 3.975 22.1766 3.975 22.4203 3.75C22.6828 3.50625 22.7578 3.16875 22.6078 2.8875C22.1953 2.15625 19.3641 1.63125 17.5828 1.96875Z" fill="black"/>
<path d="M30.3328 5.25C30.1453 5.4 30.0891 5.53125 30.0891 5.75625C30.0891 6.15 30.2203 6.3 30.9141 6.65625C31.6453 7.0125 32.2828 7.65 32.6203 8.34375C32.9766 9.075 33.1078 9.20625 33.5016 9.20625C33.9141 9.20625 34.2141 8.90625 34.2141 8.49375C34.2141 8.1375 33.8203 7.3125 33.3328 6.7125C32.7328 5.94375 31.3641 5.04375 30.7828 5.04375C30.6703 5.04375 30.4641 5.1375 30.3328 5.25Z" fill="black"/>
<path d="M3.93282 15.3187C3.37032 15.5437 2.80782 15.9937 2.50782 16.4437C1.98282 17.2875 1.98282 17.1187 2.02032 24.0562L2.03907 30.3562L2.26407 31.05C2.71407 32.3438 2.88282 32.55 6.48282 36.15C9.52032 39.1875 9.85782 39.4875 10.1016 39.4875C10.4953 39.4875 10.8141 39.15 10.8141 38.7375C10.8141 38.4188 10.6828 38.2875 7.49532 35.0813C5.67657 33.2438 4.10157 31.6125 4.02657 31.4625C3.95157 31.3125 3.80157 30.9563 3.68907 30.675C3.50157 30.2063 3.50157 30.075 3.46407 24.0562C3.44532 18.5437 3.46407 17.8875 3.57657 17.55C3.78282 17.0437 4.19532 16.7437 4.77657 16.6875C5.33907 16.65 5.77032 16.8187 6.08907 17.25L6.33282 17.5687L6.37032 20.9437L6.40782 24.3187L6.65157 24.525C6.91407 24.75 7.12032 24.7875 7.43907 24.6375C7.85157 24.45 7.85157 24.375 7.83282 20.7562L7.81407 17.3437L7.57032 16.8562C7.27032 16.2375 6.61407 15.6375 5.99532 15.4125C5.43282 15.1312 4.47657 15.1125 3.93282 15.3187Z" fill="black"/>
<path d="M42.2391 15.3562C41.5828 15.6187 40.8516 16.35 40.6078 17.0062C40.4203 17.4937 40.4203 17.625 40.4203 20.85C40.4203 24.375 40.4203 24.3562 40.8328 24.5625C41.1141 24.7125 41.3391 24.675 41.6203 24.45L41.8641 24.2437L41.9016 20.8687L41.9391 17.4937L42.1828 17.175C42.5016 16.7437 42.9328 16.575 43.4953 16.6125C44.0578 16.65 44.4516 16.9312 44.6578 17.4C44.8078 17.7375 44.8266 18.0937 44.8266 23.6812C44.8266 29.3437 44.8266 29.6437 44.6578 30.3C44.5641 30.675 44.3766 31.1625 44.2641 31.3687C44.1328 31.5937 42.6703 33.15 40.7578 35.0625C37.6078 38.2125 37.4766 38.3625 37.4766 38.6812C37.4766 39.1125 37.7953 39.4312 38.1891 39.4312C38.4328 39.4312 38.7703 39.1125 41.8078 36.0937C45.4078 32.4937 45.5766 32.2875 46.0266 30.9937L46.2516 30.3V23.8125V17.3812L45.9703 16.8C45.6516 16.1625 45.2203 15.7312 44.5828 15.4125C44.0203 15.1312 42.8953 15.0937 42.2391 15.3562Z" fill="black"/>
<path d="M8.37657 25.6687C7.58907 25.9875 7.06407 26.475 6.72657 27.225C6.52032 27.675 6.50157 27.8062 6.53907 28.3875C6.59532 29.5687 6.74532 29.775 9.14532 32.1937C11.1891 34.2562 11.2453 34.2937 11.6016 34.2937C12.0516 34.2937 12.3328 34.0312 12.3328 33.5625C12.3328 33.225 12.2578 33.15 10.2703 31.1437C9.12657 30 8.15157 28.95 8.11407 28.8187C7.64532 27.5625 8.97657 26.55 10.1016 27.2812C10.6641 27.6375 15.9141 32.9625 16.1953 33.45C16.7391 34.3687 16.7766 34.7062 16.8328 37.3875C16.8703 39.6375 16.8703 39.8437 17.0391 39.9937C17.2641 40.2375 17.5828 40.2937 17.8641 40.1625C18.3141 39.9375 18.3328 39.825 18.3141 37.2C18.2766 34.4812 18.2391 34.2375 17.6391 33C17.3016 32.2875 17.1891 32.175 14.1703 29.1375C10.6266 25.5937 10.6641 25.6312 9.44532 25.575C8.93907 25.575 8.52657 25.6125 8.37657 25.6687Z" fill="black"/>
<path d="M38.0578 25.7063C37.4016 25.9688 37.0266 26.325 34.0641 29.3063C31.2328 32.1563 31.1016 32.3063 30.7641 33.0188C30.1641 34.2563 30.1266 34.4812 30.0891 37.2187C30.0516 39.8625 30.0703 39.975 30.5391 40.1813C30.8203 40.3125 31.1203 40.2562 31.3641 40.0125C31.5141 39.8437 31.5328 39.6562 31.5703 37.4062C31.6078 34.7437 31.6641 34.4062 32.2078 33.4687C32.5078 32.9437 37.9641 27.4313 38.4141 27.2063C39.5391 26.625 40.7391 27.6563 40.2891 28.8375C40.2516 28.9688 39.2766 30.0187 38.1328 31.1625C36.1078 33.1875 36.0703 33.2625 36.0703 33.6C36.0703 34.0687 36.3328 34.3313 36.8016 34.3313C37.1391 34.3313 37.2141 34.2562 39.2391 32.2312C41.7141 29.7375 41.8266 29.6062 41.8266 28.3125C41.8266 27.6375 41.7891 27.4687 41.6016 27.0937C41.3016 26.5312 40.8141 26.0813 40.2328 25.8C39.5953 25.5188 38.6203 25.4813 38.0578 25.7063Z" fill="black"/>
<path d="M6.65157 42L6.42657 42.2625V43.95V45.6375L6.67032 45.8812C7.00782 46.2 7.38282 46.2187 7.68282 45.9187C7.88907 45.7125 7.90782 45.675 7.90782 44.4562V43.2H13.0828H18.2766V44.4562C18.2766 45.6937 18.2766 45.7312 18.5016 45.9187C18.8016 46.2187 19.1766 46.2 19.5141 45.8812L19.7578 45.6375V43.95V42.2625L19.5328 42L19.3078 41.7375H13.0828H6.87657L6.65157 42Z" fill="black"/>
<path d="M28.7953 42L28.5703 42.2625V43.95V45.6375L28.8141 45.8812C29.1516 46.2 29.5266 46.2187 29.8266 45.9187C30.0328 45.7125 30.0516 45.675 30.0516 44.4562V43.2H35.2453H40.4391V44.4562C40.4391 45.6937 40.4391 45.7312 40.6641 45.9187C40.9641 46.2187 41.3391 46.2 41.6766 45.8812L41.9203 45.6375V43.95V42.2625L41.6953 42L41.4703 41.7375H35.2641H29.0203L28.7953 42Z" fill="black"/>
</svg>
