<svg width="49" height="48" viewBox="0 0 49 48" fill="none" xmlns="http://www.w3.org/2000/svg">
<g clip-path="url(#clip0_2_7)">
<path d="M47.3678 29.8574H43.0943C42.7746 28.2009 41.4539 26.8966 39.7887 26.6024C39.684 26.0122 39.4488 25.4516 39.1025 24.9599C40.1038 23.5937 40.3711 21.8778 39.7474 20.4815C39.6693 20.3066 39.5295 20.1667 39.3546 20.0887C38.0538 19.5076 36.4756 19.6999 35.1612 20.5385C34.5655 19.6411 33.5496 19.0756 32.4391 19.0756C30.6641 19.0756 29.2163 20.4993 29.1754 22.2645C28.6827 21.4617 27.9658 20.8057 27.1096 20.3916C27.3025 19.9753 27.411 19.512 27.411 19.0238C27.411 17.4639 26.3116 16.1559 24.847 15.834C24.5251 14.3693 23.217 13.27 21.6572 13.27C20.8895 13.27 20.1605 13.5383 19.5838 14.0138C19.007 13.5383 18.278 13.27 17.5103 13.27C15.9505 13.27 14.6425 14.3693 14.3206 15.834C12.8559 16.1559 11.7566 17.4639 11.7566 19.0238C11.7566 20.8244 13.2215 22.2894 15.0222 22.2894C15.8944 22.2894 16.7069 21.9357 17.3025 21.3488C17.5682 22.038 17.8994 23.0025 18.1834 24.1476C17.9075 24.0837 17.6451 24.0517 17.3827 24.0517C16.7819 24.0517 16.2123 24.191 15.7015 24.4387C14.7851 23.1608 13.3153 22.3931 11.7047 22.3931C11.5571 22.3931 11.4073 22.4039 11.2559 22.42C11.1871 21.9705 11.0128 21.4758 10.6532 21.0262C10.3849 20.6908 9.89565 20.6364 9.56027 20.9048C9.225 21.173 9.17057 21.6623 9.43887 21.9977C9.54949 22.136 9.62061 22.2808 9.66612 22.4201C9.51455 22.404 9.36454 22.3932 9.2167 22.3932C6.50133 22.3931 4.29219 24.6022 4.29219 27.3175C4.29219 28.2328 4.53986 29.1034 4.99488 29.8574H0.922863C0.493454 29.8574 0.145325 30.2056 0.145325 30.635C0.145325 31.0644 0.493454 31.4125 0.922863 31.4125H7.16908L8.67751 33.4238C9.29093 34.2417 10.2676 34.73 11.29 34.73H37.0006C38.023 34.73 38.9997 34.2417 39.6131 33.4238L41.1216 31.4125H47.3678C47.7972 31.4125 48.1453 31.0644 48.1453 30.635C48.1453 30.2056 47.7972 29.8574 47.3678 29.8574ZM35.342 22.3764C36.221 21.4973 37.4486 21.1225 38.4322 21.4038C38.7138 22.3874 38.3389 23.6151 37.4599 24.4942C36.8464 25.1077 36.0632 25.4745 35.3117 25.5452L36.1726 24.6845C36.4762 24.3809 36.4763 23.8885 36.1727 23.5849C35.869 23.2812 35.3767 23.2811 35.0731 23.5848L34.314 24.3437C34.4224 23.6488 34.7776 22.9408 35.342 22.3764ZM32.4391 20.6307C33.0906 20.6307 33.6797 21.0023 33.9671 21.5736C33.6588 21.931 33.405 22.319 33.2085 22.7237C32.7061 22.5064 32.1647 22.3931 31.6097 22.3931C31.3123 22.3931 31.0195 22.4267 30.7349 22.4899C30.7307 22.4407 30.7285 22.3911 30.7285 22.3412C30.7285 21.398 31.4959 20.6307 32.4391 20.6307ZM27.9505 23.2537C27.7891 23.2333 27.6264 23.2225 27.4628 23.2225C25.4489 23.2225 23.7698 24.684 23.4304 26.6021C23.2879 26.6271 23.147 26.6604 23.0078 26.7006C22.634 25.6822 21.8776 24.857 20.9204 24.412C21.2169 23.1543 21.5793 22.0927 21.8657 21.3495C22.4612 21.9359 23.2733 22.2894 24.1453 22.2894C24.8716 22.2894 25.5432 22.0508 26.0862 21.6482C26.8923 21.9303 27.5561 22.5129 27.9505 23.2537ZM17.9944 19.1726C17.806 18.9579 17.5152 18.8639 17.2364 18.9274C16.958 18.9912 16.7368 19.2025 16.6605 19.4777C16.4558 20.2176 15.7819 20.7343 15.0222 20.7343C14.079 20.7343 13.3116 19.967 13.3116 19.0238C13.3116 18.0805 14.079 17.3132 15.0222 17.3132C15.4516 17.3132 15.7998 16.965 15.7998 16.5356C15.7998 15.5924 16.5671 14.825 17.5103 14.825C18.084 14.825 18.6168 15.1122 18.9358 15.593C19.0799 15.8102 19.3231 15.9409 19.5838 15.9409C19.8444 15.9409 20.0877 15.8102 20.2317 15.593C20.5506 15.1121 21.0835 14.825 21.6572 14.825C22.6004 14.825 23.3678 15.5924 23.3678 16.5356C23.3678 16.965 23.7159 17.3132 24.1453 17.3132C25.0885 17.3132 25.8559 18.0805 25.8559 19.0238C25.8559 19.967 25.0885 20.7343 24.1453 20.7343C23.3856 20.7343 22.7118 20.2176 22.5068 19.4777C22.4305 19.2025 22.2094 18.9912 21.9309 18.9274C21.8733 18.9143 21.8151 18.9078 21.7575 18.9078C21.5364 18.9078 21.3224 19.0023 21.173 19.1726C20.7586 19.6449 20.1942 19.905 19.5837 19.905C18.9731 19.905 18.4088 19.6449 17.9944 19.1726ZM20.1847 21.4074C19.9892 21.9588 19.7796 22.6128 19.5838 23.348C19.388 22.6128 19.1783 21.9588 18.9829 21.4074C19.1804 21.4409 19.381 21.46 19.5838 21.46C19.7864 21.46 19.9871 21.4409 20.1847 21.4074ZM17.3827 25.6069C17.5308 25.6069 17.6837 25.6263 17.8501 25.6661C18.1751 25.7439 18.5045 25.7439 18.8294 25.6661C18.9957 25.6263 19.1488 25.6069 19.2967 25.6069C20.6269 25.6069 21.709 26.7464 21.709 28.1469C21.709 28.783 21.482 29.3919 21.079 29.8574H15.6004C15.1974 29.3919 14.9704 28.783 14.9704 28.1469C14.9704 26.7464 16.0525 25.6069 17.3827 25.6069ZM7.00383 29.8574C6.26631 29.2167 5.84727 28.3044 5.84727 27.3175C5.84727 25.4597 7.3588 23.9482 9.2166 23.9482C9.52844 23.9482 9.8492 24.0037 10.2262 24.123C10.3789 24.1713 10.5426 24.1713 10.6952 24.123C11.0721 24.0037 11.3929 23.9482 11.7047 23.9482C12.8197 23.9482 13.8359 24.4863 14.4614 25.3796C13.8124 26.1089 13.4153 27.0808 13.4153 28.1469C13.4153 28.7437 13.5426 29.3263 13.7793 29.8574H7.00383ZM38.3691 32.4907C38.0477 32.9192 37.5362 33.1749 37.0006 33.1749H11.29C10.7545 33.1749 10.2428 32.9192 9.92157 32.4907L9.11293 31.4125H39.1777L38.3691 32.4907ZM22.9001 29.8574C23.1227 29.358 23.2472 28.8127 23.2613 28.2531C23.5432 28.1484 23.84 28.095 24.1453 28.095C24.3515 28.095 24.5493 28.0131 24.6951 27.8673C24.841 27.7215 24.9229 27.5237 24.9229 27.3175C24.9229 25.917 26.0623 24.7775 27.4628 24.7775C27.8712 24.7775 28.2763 24.8854 28.6669 25.098C28.9967 25.2776 29.4077 25.1957 29.6436 24.9036C30.1339 24.2964 30.8505 23.9482 31.6096 23.9482C32.0113 23.9482 32.4013 24.0458 32.7549 24.2302C32.6875 24.7648 32.7172 25.2992 32.8504 25.8066L31.8892 26.7676C31.5855 27.0713 31.5854 27.5636 31.8891 27.8673C32.041 28.0191 32.2399 28.095 32.439 28.095C32.6379 28.095 32.8368 28.0191 32.9887 27.8674L33.906 26.9504C34.2771 27.0611 34.6639 27.1165 35.0561 27.1165C36.06 27.1165 37.0969 26.7618 37.9813 26.0961C38.1855 26.4681 38.2965 26.8876 38.2965 27.3175C38.2965 27.7469 38.6446 28.095 39.0741 28.095C40.2035 28.095 41.1625 28.8362 41.4918 29.8574H22.9001Z" fill="black"/>
</g>
<defs>
<clipPath id="clip0_2_7">
<rect width="48" height="48" fill="white" transform="translate(0.145325)"/>
</clipPath>
</defs>
</svg>
