<svg width="43" height="42" viewBox="0 0 43 42" fill="none" xmlns="http://www.w3.org/2000/svg">
<g clip-path="url(#clip0_2_63)">
<path d="M41.4183 19.6009H40.0192V17.5023C40.0192 17.0826 39.7394 16.8028 39.3197 16.8028H37.9206V11.2064H41.4183C41.6282 11.2064 41.8381 11.1365 41.978 10.9266C42.1179 10.7168 42.1879 10.5069 42.1179 10.297L39.3197 0.503423C39.1798 0.223634 38.9 0.0137711 38.6202 0.0137711H3.64306C3.36327 0.0137711 3.08339 0.223634 2.94354 0.503423L0.145317 10.297C0.145317 10.5068 0.145317 10.7167 0.285253 10.9265C0.425189 11.1364 0.635051 11.2063 0.844914 11.2063H4.34257V16.8027H2.94346C2.52373 16.8027 2.24394 17.0825 2.24394 17.5022C2.24394 17.9219 2.52373 18.2017 2.94346 18.2017H4.34257V41.2866C4.34257 41.7064 4.62236 41.9861 5.04209 41.9861H7.84023C8.25995 41.9861 8.53974 41.7064 8.53974 41.2866V18.2017H11.3379V18.9012C11.3379 19.321 11.6177 19.6008 12.0374 19.6008H14.8357V27.9953H10.6385C10.2187 27.9953 9.93894 28.2751 9.93894 28.6948V32.892V37.0893V41.2865C9.93894 41.7063 10.2187 41.9861 10.6385 41.9861H17.6338H24.6292H31.6247C32.0444 41.9861 32.3242 41.7063 32.3242 41.2865V37.0893V32.892V28.6948C32.3242 28.2751 32.0444 27.9953 31.6247 27.9953H24.6293H17.6339H16.2348V19.6008H30.2257C30.6454 19.6008 30.9252 19.321 30.9252 18.9012V18.2017H33.7233V41.2866C33.7233 41.7064 34.0031 41.9861 34.4229 41.9861H37.221C37.6407 41.9861 37.9205 41.7064 37.9205 41.2866V18.2017H38.62V20.3004C38.62 20.7201 38.8998 20.9999 39.3195 20.9999H41.4182C41.8379 20.9999 42.1177 20.7201 42.1177 20.3004C42.1177 19.8806 41.8381 19.6009 41.4183 19.6009ZM17.6338 33.5917H20.432V36.3899H17.6338H14.8357V33.5917H17.6338ZM24.6293 33.5917H27.4275V36.3899H24.6293H21.8312V33.5917H24.6293ZM30.9252 33.5917V36.3899H28.8266V33.5917H30.9252ZM13.4366 36.3899H11.338V33.5918H13.4366V36.3899ZM11.338 37.789H14.1361H16.9343V40.5871H11.338V37.789ZM18.3334 37.789H21.1316H23.9297V40.5871H18.3334V37.789H18.3334ZM30.9252 40.5872H25.3288V37.7891H28.127H30.9251V40.5872H30.9252ZM30.9252 32.1927H28.1271H25.3288V29.3945H30.9252V32.1927ZM23.9297 32.1927H21.1316H18.3334V29.3945H23.9298V32.1927H23.9297ZM16.9343 32.1927H14.1362H11.338V29.3945H16.9343V32.1927ZM36.5215 16.8027H35.1224V11.2063H36.5215V16.8027ZM4.20264 1.4128H38.0605L40.4389 9.80731H37.221H34.4229H7.84031H5.04209H1.75429L4.20264 1.4128ZM5.74168 11.2064H7.14079V16.8028H5.74168V11.2064ZM7.14071 40.5872H5.74168V18.2018H7.14079L7.14071 40.5872ZM12.7371 18.2018V16.8027H14.8357V18.2018H12.7371ZM16.2348 16.8027H17.6339V18.2018H16.2348V16.8027ZM20.4321 16.8027V18.2018H19.033V16.8027H20.4321ZM29.5261 18.2018H21.8311V16.8027H29.5261V18.2018ZM30.9252 16.8027V16.1032C30.9252 15.6835 30.6454 15.4037 30.2257 15.4037H12.0376C11.6178 15.4037 11.338 15.6835 11.338 16.1032V16.8027H8.53982V11.2063H33.7233V16.8027H30.9252ZM36.5215 40.5872H35.1224V18.2018H36.5215V40.5872Z" fill="black"/>
</g>
<defs>
<clipPath id="clip0_2_63">
<rect width="42" height="42" fill="white" transform="translate(0.145325)"/>
</clipPath>
</defs>
</svg>
