<svg width="49" height="48" viewBox="0 0 49 48" fill="none" xmlns="http://www.w3.org/2000/svg">
<path d="M43.5637 23.6009H42.1646V21.5023C42.1646 21.0826 41.8848 20.8028 41.465 20.8028H40.0659V15.2064H43.5637C43.7735 15.2064 43.9834 15.1365 44.1233 14.9266C44.2633 14.7168 44.3332 14.5069 44.2633 14.297L41.465 4.50342C41.3251 4.22363 41.0453 4.01377 40.7655 4.01377H5.78838C5.50859 4.01377 5.22872 4.22363 5.08887 4.50342L2.29064 14.297C2.29064 14.5068 2.29064 14.7167 2.43058 14.9265C2.57051 15.1364 2.78038 15.2063 2.99024 15.2063H6.4879V20.8027H5.08878C4.66906 20.8027 4.38927 21.0825 4.38927 21.5022C4.38927 21.9219 4.66906 22.2017 5.08878 22.2017H6.4879V45.2866C6.4879 45.7064 6.76769 45.9861 7.18741 45.9861H9.98555C10.4053 45.9861 10.6851 45.7064 10.6851 45.2866V22.2017H13.4832V22.9012C13.4832 23.321 13.763 23.6008 14.1827 23.6008H16.981V31.9953H12.7838C12.3641 31.9953 12.0843 32.2751 12.0843 32.6948V36.892V41.0893V45.2865C12.0843 45.7063 12.3641 45.9861 12.7838 45.9861H19.7792H26.7746H33.77C34.1898 45.9861 34.4696 45.7063 34.4696 45.2865V41.0893V36.892V32.6948C34.4696 32.2751 34.1898 31.9953 33.77 31.9953H26.7746H19.7793H18.3801V23.6008H32.371C32.7907 23.6008 33.0705 23.321 33.0705 22.9012V22.2017H35.8687V45.2866C35.8687 45.7064 36.1485 45.9861 36.5682 45.9861H39.3663C39.7861 45.9861 40.0658 45.7064 40.0658 45.2866V22.2017H40.7654V24.3004C40.7654 24.7201 41.0451 24.9999 41.4649 24.9999H43.5635C43.9832 24.9999 44.263 24.7201 44.263 24.3004C44.263 23.8806 43.9834 23.6009 43.5637 23.6009ZM19.7792 37.5917H22.5773V40.3899H19.7792H16.981V37.5917H19.7792ZM26.7746 37.5917H29.5728V40.3899H26.7746H23.9765V37.5917H26.7746ZM33.0705 37.5917V40.3899H30.9719V37.5917H33.0705ZM15.5819 40.3899H13.4833V37.5918H15.5819V40.3899ZM13.4833 41.789H16.2814H19.0797V44.5871H13.4833V41.789ZM20.4788 41.789H23.2769H26.0751V44.5871H20.4787V41.789H20.4788ZM33.0705 44.5872H27.4742V41.7891H30.2723H33.0704V44.5872H33.0705ZM33.0705 36.1927H30.2724H27.4742V33.3945H33.0705V36.1927ZM26.0751 36.1927H23.2769H20.4788V33.3945H26.0751V36.1927H26.0751ZM19.0797 36.1927H16.2815H13.4834V33.3945H19.0797V36.1927ZM38.6668 20.8027H37.2677V15.2063H38.6668V20.8027ZM6.34796 5.4128H40.2058L42.5842 13.8073H39.3663H36.5682H9.98563H7.18741H3.89962L6.34796 5.4128ZM7.88701 15.2064H9.28612V20.8028H7.88701V15.2064ZM9.28604 44.5872H7.88701V22.2018H9.28612L9.28604 44.5872ZM14.8824 22.2018V20.8027H16.981V22.2018H14.8824ZM18.3801 20.8027H19.7793V22.2018H18.3801V20.8027ZM22.5774 20.8027V22.2018H21.1783V20.8027H22.5774ZM31.6714 22.2018H23.9764V20.8027H31.6714V22.2018ZM33.0705 20.8027V20.1032C33.0705 19.6835 32.7907 19.4037 32.371 19.4037H14.1829C13.7632 19.4037 13.4834 19.6835 13.4834 20.1032V20.8027H10.6851V15.2063H35.8687V20.8027H33.0705ZM38.6668 44.5872H37.2677V22.2018H38.6668V44.5872Z" fill="black"/>
</svg>
